<?xml version="1.0" encoding="utf-8"?>
<!-- Generator: Adobe Illustrator 26.0.1, SVG Export Plug-In . SVG Version: 6.00 Build 0)  -->
<svg version="1.1" id="Layer_1" xmlns="http://www.w3.org/2000/svg" xmlns:xlink="http://www.w3.org/1999/xlink" x="0px" y="0px"
	 viewBox="0 0 18.3 12.5" style="enable-background:new 0 0 18.3 12.5;" xml:space="preserve">
<path d="M8.1,12.5c-0.3,0-0.6-0.1-0.8-0.3C7.1,11.9,7,11.6,7,11.3c0-0.3,0.1-0.6,0.3-0.8c0.2-0.2,0.5-0.3,0.8-0.3h2
	c0.3,0,0.6,0.1,0.8,0.3c0.2,0.2,0.3,0.5,0.3,0.8c0,0.3-0.1,0.6-0.3,0.8c-0.2,0.2-0.5,0.3-0.8,0.3H8.1z M1.2,2.3
	C0.8,2.3,0.6,2.2,0.3,2C0.1,1.7,0,1.5,0,1.1c0-0.3,0.1-0.6,0.3-0.8C0.6,0.1,0.8,0,1.2,0h16c0.3,0,0.6,0.1,0.8,0.3
	c0.2,0.2,0.3,0.5,0.3,0.8c0,0.3-0.1,0.6-0.3,0.8c-0.2,0.2-0.5,0.3-0.8,0.3H1.2z M4.2,7.4C3.8,7.4,3.6,7.3,3.3,7C3.1,6.8,3,6.5,3,6.2
	c0-0.3,0.1-0.6,0.3-0.8c0.2-0.2,0.5-0.3,0.8-0.3h10c0.3,0,0.6,0.1,0.8,0.3c0.2,0.2,0.3,0.5,0.3,0.8c0,0.3-0.1,0.6-0.3,0.8
	c-0.2,0.2-0.5,0.3-0.8,0.3H4.2z"/>
</svg>
